name Walk2.mot
datacolumns 19
datarows 20
range 1.72000000 1.73900000
endheader

                time	   L_ground_force_vx	   L_ground_force_vy	   L_ground_force_vz	   L_ground_force_px	   L_ground_force_py	   L_ground_force_pz	   R_ground_force_vx	   R_ground_force_vy	   R_ground_force_vz	   R_ground_force_px	   R_ground_force_py	   R_ground_force_pz	   L_ground_torque_x	   L_ground_torque_y	   L_ground_torque_z	   R_ground_torque_x	   R_ground_torque_y	   R_ground_torque_z	
          1.72000000	          0.04605372	          0.13430355	         -0.00392493	         -0.00006933	          0.00000000	         -0.00007718	        -24.74693917	        455.43104067	        -23.97620439	          0.44426017	          0.00000000	          0.07965952	          0.00000000	         -0.00000888	          0.00000000	          0.00000000	         -0.05468442	          0.00000000	
          1.72100000	          0.04279873	          0.12498075	         -0.00385447	         -0.00006736	          0.00000000	         -0.00007536	        -24.47491916	        455.03829318	        -23.91232096	          0.44488833	          0.00000000	          0.07959737	          0.00000000	         -0.00000857	          0.00000000	          0.00000000	         -0.03072959	          0.00000000	
          1.72200000	          0.03965876	          0.11597834	         -0.00377544	         -0.00006530	          0.00000000	         -0.00007340	        -24.20382983	        454.70032551	        -23.85452856	          0.44551903	          0.00000000	          0.07953541	          0.00000000	         -0.00000825	          0.00000000	          0.00000000	         -0.00667811	          0.00000000	
          1.72300000	          0.03663591	          0.10730309	         -0.00368886	         -0.00006318	          0.00000000	         -0.00007133	        -23.93332565	        454.41638720	        -23.80305508	          0.44615209	          0.00000000	          0.07947369	          0.00000000	         -0.00000793	          0.00000000	          0.00000000	          0.01746542	          0.00000000	
          1.72400000	          0.03373163	          0.09895998	         -0.00359570	         -0.00006099	          0.00000000	         -0.00006917	        -23.66306861	        454.18572058	        -23.75812263	          0.44678734	          0.00000000	          0.07941227	          0.00000000	         -0.00000761	          0.00000000	          0.00000000	          0.04169515	          0.00000000	
          1.72500000	          0.03094682	          0.09095229	         -0.00349688	         -0.00005876	          0.00000000	         -0.00006693	        -23.39272935	        454.00756447	        -23.71994590	          0.44742457	          0.00000000	          0.07935119	          0.00000000	         -0.00000728	          0.00000000	          0.00000000	          0.06600379	          0.00000000	
          1.72600000	          0.02828185	          0.08328175	         -0.00339324	         -0.00005649	          0.00000000	         -0.00006463	        -23.12198793	        453.88115713	        -23.68873146	          0.44806361	          0.00000000	          0.07929052	          0.00000000	         -0.00000696	          0.00000000	          0.00000000	          0.09038249	          0.00000000	
          1.72700000	          0.02573659	          0.07594870	         -0.00328560	         -0.00005421	          0.00000000	         -0.00006228	        -22.85053436	        453.80573922	        -23.66467763	          0.44870424	          0.00000000	          0.07923030	          0.00000000	         -0.00000663	          0.00000000	          0.00000000	          0.11482085	          0.00000000	
          1.72800000	          0.02331049	          0.06895214	         -0.00317469	         -0.00005191	          0.00000000	         -0.00005989	        -22.57806914	        453.78055707	        -23.64797445	          0.44934628	          0.00000000	          0.07917058	          0.00000000	         -0.00000631	          0.00000000	          0.00000000	          0.13930704	          0.00000000	
          1.72900000	          0.02100258	          0.06228990	         -0.00306121	         -0.00004962	          0.00000000	         -0.00005748	        -22.30430428	        453.80486651	        -23.63880348	          0.44998952	          0.00000000	          0.07911141	          0.00000000	         -0.00000599	          0.00000000	          0.00000000	          0.16382782	          0.00000000	
          1.73000000	          0.01881154	          0.05595873	         -0.00294582	         -0.00004733	          0.00000000	         -0.00005506	        -22.02896463	        453.87793672	        -23.63733710	          0.45063376	          0.00000000	          0.07905285	          0.00000000	         -0.00000568	          0.00000000	          0.00000000	          0.18836868	          0.00000000	
          1.73100000	          0.01673570	          0.04995442	         -0.00282910	         -0.00004505	          0.00000000	         -0.00005264	        -21.75178976	        453.99905378	        -23.64373736	          0.45127882	          0.00000000	          0.07899493	          0.00000000	         -0.00000537	          0.00000000	          0.00000000	          0.21291390	          0.00000000	
          1.73200000	          0.01477312	          0.04427184	         -0.00271162	         -0.00004280	          0.00000000	         -0.00005022	        -21.47253583	        454.16752409	        -23.65815458	          0.45192450	          0.00000000	          0.07893770	          0.00000000	         -0.00000507	          0.00000000	          0.00000000	          0.23744658	          0.00000000	
          1.73300000	          0.01292158	          0.03890513	         -0.00259388	         -0.00004058	          0.00000000	         -0.00004782	        -21.19097763	        454.38267797	        -23.68072581	          0.45257063	          0.00000000	          0.07888119	          0.00000000	         -0.00000477	          0.00000000	          0.00000000	          0.26194884	          0.00000000	
          1.73400000	          0.01117864	          0.03384771	         -0.00247635	         -0.00003840	          0.00000000	         -0.00004544	        -20.90691035	        454.64387369	        -23.71157358	          0.45321701	          0.00000000	          0.07882543	          0.00000000	         -0.00000448	          0.00000000	          0.00000000	          0.28640199	          0.00000000	
          1.73500000	          0.00954165	          0.02909239	         -0.00235945	         -0.00003625	          0.00000000	         -0.00004309	        -20.62015133	        454.95050173	        -23.75080486	          0.45386349	          0.00000000	          0.07877043	          0.00000000	         -0.00000420	          0.00000000	          0.00000000	          0.31078667	          0.00000000	
          1.73600000	          0.00800779	          0.02463145	         -0.00224358	         -0.00003415	          0.00000000	         -0.00004078	        -20.33054175	        455.30198839	        -23.79851046	          0.45450988	          0.00000000	          0.07871621	          0.00000000	         -0.00000393	          0.00000000	          0.00000000	          0.33508292	          0.00000000	
          1.73700000	          0.00657409	          0.02045672	         -0.00212908	         -0.00003211	          0.00000000	         -0.00003852	        -20.03794809	        455.69779811	        -23.85476461	          0.45515605	          0.00000000	          0.07866278	          0.00000000	         -0.00000366	          0.00000000	          0.00000000	          0.35927023	          0.00000000	
          1.73800000	          0.00523744	          0.01655964	         -0.00201627	         -0.00003011	          0.00000000	         -0.00003630	        -19.74226348	        456.13743465	        -23.91962483	          0.45580183	          0.00000000	          0.07861014	          0.00000000	         -0.00000341	          0.00000000	          0.00000000	          0.38332747	          0.00000000	
          1.73900000	          0.00399465	          0.01293134	         -0.00190544	         -0.00002817	          0.00000000	         -0.00003413	        -19.44340862	        456.62044174	        -23.99313175	          0.45644706	          0.00000000	          0.07855829	          0.00000000	         -0.00000316	          0.00000000	          0.00000000	          0.40723283	          0.00000000	
